{"asset":{"version":"2.0","generator":"Blockbench 4.12.5 glTF exporter"},"scenes":[{"nodes":[13],"name":"blockbench_export"}],"scene":0,"nodes":[{"name":"stand","mesh":0},{"translation":[0,1.25,0],"name":"bracket","mesh":1},{"translation":[2.5,1.25,-13.125],"name":"flywheel_bracket","mesh":2},{"translation":[0,4.375,0],"name":"cylinder","mesh":3},{"translation":[0,0,1.875],"name":"base","children":[0,1,2,3]},{"translation":[0,6.25,3.125],"name":"piston","mesh":4},{"name":"connecting_rod","mesh":5},{"translation":[0,6.25,0],"name":"connecting_rod","children":[6]},{"name":"piston","children":[5,7]},{"rotation":[0,0,0.7071067811865475,0.7071067811865476],"translation":[2.5,-1.1102230246251565e-15,0],"name":"flywheel","mesh":6},{"scale":[0.018711018711018712,0.018711018711018712,0.018711018711018712],"name":"locator"},{"translation":[-1.875,-1.1102230246251565e-15,3.125],"name":"locator","children":[10]},{"translation":[1.875,6.875000000000001,-10],"name":"flywheel","children":[9,11]},{"children":[4,8,12]}],"bufferViews":[{"buffer":0,"byteOffset":0,"byteLength":288,"target":34962,"byteStride":12},{"buffer":0,"byteOffset":288,"byteLength":288,"target":34962,"byteStride":12},{"buffer":0,"byteOffset":576,"byteLength":192,"target":34962,"byteStride":8},{"buffer":0,"byteOffset":768,"byteLength":72,"target":34963},{"buffer":0,"byteOffset":840,"byteLength":288,"target":34962,"byteStride":12},{"buffer":0,"byteOffset":1128,"byteLength":288,"target":34962,"byteStride":12},{"buffer":0,"byteOffset":1416,"byteLength":192,"target":34962,"byteStride":8},{"buffer":0,"byteOffset":1608,"byteLength":72,"target":34963},{"buffer":0,"byteOffset":1680,"byteLength":288,"target":34962,"byteStride":12},{"buffer":0,"byteOffset":1968,"byteLength":288,"target":34962,"byteStride":12},{"buffer":0,"byteOffset":2256,"byteLength":192,"target":34962,"byteStride":8},{"buffer":0,"byteOffset":2448,"byteLength":72,"target":34963},{"buffer":0,"byteOffset":2520,"byteLength":288,"target":34962,"byteStride":12},{"buffer":0,"byteOffset":2808,"byteLength":288,"target":34962,"byteStride":12},{"buffer":0,"byteOffset":3096,"byteLength":192,"target":34962,"byteStride":8},{"buffer":0,"byteOffset":3288,"byteLength":72,"target":34963},{"buffer":0,"byteOffset":3360,"byteLength":288,"target":34962,"byteStride":12},{"buffer":0,"byteOffset":3648,"byteLength":288,"target":34962,"byteStride":12},{"buffer":0,"byteOffset":3936,"byteLength":192,"target":34962,"byteStride":8},{"buffer":0,"byteOffset":4128,"byteLength":72,"target":34963},{"buffer":0,"byteOffset":4200,"byteLength":288,"target":34962,"byteStride":12},{"buffer":0,"byteOffset":4488,"byteLength":288,"target":34962,"byteStride":12},{"buffer":0,"byteOffset":4776,"byteLength":192,"target":34962,"byteStride":8},{"buffer":0,"byteOffset":4968,"byteLength":72,"target":34963},{"buffer":0,"byteOffset":5040,"byteLength":2880,"target":34962,"byteStride":12},{"buffer":0,"byteOffset":7920,"byteLength":2880,"target":34962,"byteStride":12},{"buffer":0,"byteOffset":10800,"byteLength":1920,"target":34962,"byteStride":8},{"buffer":0,"byteOffset":12720,"byteLength":576,"target":34963},{"buffer":0,"byteOffset":13296,"byteLength":20},{"buffer":0,"byteOffset":13316,"byteLength":80},{"buffer":0,"byteOffset":13396,"byteLength":4},{"buffer":0,"byteOffset":13400,"byteLength":12},{"buffer":0,"byteOffset":13412,"byteLength":64},{"buffer":0,"byteOffset":13476,"byteLength":192},{"buffer":0,"byteOffset":13668,"byteLength":72},{"buffer":0,"byteOffset":13740,"byteLength":288},{"buffer":0,"byteOffset":14028,"byteLength":8},{"buffer":0,"byteOffset":14036,"byteLength":24}],"buffers":[{"byteLength":14060,"uri":"data:application/octet-stream;base64,"}],"accessors":[{"bufferView":0,"componentType":5126,"count":24,"max":[3.125,1.25,3.125],"min":[-3.125,0,-16.875],"type":"VEC3"},{"bufferView":1,"componentType":5126,"count":24,"max":[1,1,1],"min":[-1,-1,-1],"type":"VEC3"},{"bufferView":2,"componentType":5126,"count":24,"max":[0.5,0.5],"min":[0,0],"type":"VEC2"},{"bufferView":3,"componentType":5123,"count":36,"max":[23],"min":[0],"type":"SCALAR"},{"bufferView":4,"componentType":5126,"count":24,"max":[1.25,3.125,1.875],"min":[-1.25,0,-1.875],"type":"VEC3"},{"bufferView":5,"componentType":5126,"count":24,"max":[1,1,1],"min":[-1,-1,-1],"type":"VEC3"},{"bufferView":6,"componentType":5126,"count":24,"max":[0.1875,0.1875],"min":[0,0],"type":"VEC2"},{"bufferView":7,"componentType":5123,"count":36,"max":[23],"min":[0],"type":"SCALAR"},{"bufferView":8,"componentType":5126,"count":24,"max":[0.625,6.875,3.75],"min":[0,0,-1.25],"type":"VEC3"},{"bufferView":9,"componentType":5126,"count":24,"max":[1,1,1],"min":[-1,-1,-1],"type":"VEC3"},{"bufferView":10,"componentType":5126,"count":24,"max":[0.25,0.34375],"min":[0,0],"type":"VEC2"},{"bufferView":11,"componentType":5123,"count":36,"max":[23],"min":[0],"type":"SCALAR"},{"bufferView":12,"componentType":5126,"count":24,"max":[2.5,5,2.5],"min":[-2.5,0,-2.5],"type":"VEC3"},{"bufferView":13,"componentType":5126,"count":24,"max":[1,1,1],"min":[-1,-1,-1],"type":"VEC3"},{"bufferView":14,"componentType":5126,"count":24,"max":[0.25,0.25],"min":[0,0],"type":"VEC2"},{"bufferView":15,"componentType":5123,"count":36,"max":[23],"min":[0],"type":"SCALAR"},{"bufferView":16,"componentType":5126,"count":24,"max":[0.625,1.25,7.5],"min":[-0.625,0,-3.75],"type":"VEC3"},{"bufferView":17,"componentType":5126,"count":24,"max":[1,1,1],"min":[-1,-1,-1],"type":"VEC3"},{"bufferView":18,"componentType":5126,"count":24,"max":[0.5,0.5],"min":[0,0],"type":"VEC2"},{"bufferView":19,"componentType":5123,"count":36,"max":[23],"min":[0],"type":"SCALAR"},{"bufferView":20,"componentType":5126,"count":24,"max":[0.625,1.25,-0.625],"min":[-0.625,0,-7.5],"type":"VEC3"},{"bufferView":21,"componentType":5126,"count":24,"max":[1,1,1],"min":[-1,-1,-1],"type":"VEC3"},{"bufferView":22,"componentType":5126,"count":24,"max":[0.34375,0.34375],"min":[0,0],"type":"VEC2"},{"bufferView":23,"componentType":5123,"count":36,"max":[23],"min":[0],"type":"SCALAR"},{"bufferView":24,"componentType":5126,"count":240,"max":[5,3.75,5],"min":[-5,1.875,-5],"type":"VEC3"},{"bufferView":25,"componentType":5126,"count":240,"max":[1,1,1],"min":[-1,-1,-1],"type":"VEC3"},{"bufferView":26,"componentType":5126,"count":240,"max":[0.935337483882904,0.9375],"min":[0,0],"type":"VEC2"},{"bufferView":27,"componentType":5123,"count":288,"max":[239],"min":[0],"type":"SCALAR"},{"bufferView":28,"componentType":5126,"count":5,"max":[1],"min":[0],"type":"SCALAR"},{"bufferView":29,"componentType":5126,"count":5,"max":[0,0,0,1],"min":[-1,0,0,-1],"type":"VEC4"},{"bufferView":30,"componentType":5126,"count":1,"max":[0],"min":[0],"type":"SCALAR"},{"bufferView":31,"componentType":5126,"count":1,"max":[1.875,6.875,-10],"min":[1.875,6.875,-10],"type":"VEC3"},{"bufferView":32,"componentType":5126,"count":16,"max":[1],"min":[0],"type":"SCALAR"},{"bufferView":33,"componentType":5126,"count":16,"max":[0,0,0],"min":[0,0,-6.25],"type":"VEC3"},{"bufferView":34,"componentType":5126,"count":18,"max":[1],"min":[0],"type":"SCALAR"},{"bufferView":35,"componentType":5126,"count":18,"max":[0.24615329504013062,0,0,1],"min":[-0.22495105862617493,0,0,0.9692308902740479],"type":"VEC4"},{"bufferView":36,"componentType":5126,"count":2,"max":[1],"min":[0],"type":"SCALAR"},{"bufferView":37,"componentType":5126,"count":2,"max":[0,6.25,0],"min":[0,6.25,0],"type":"VEC3"}],"materials":[{"pbrMetallicRoughness":{"metallicFactor":0,"roughnessFactor":1},"alphaMode":"MASK","alphaCutoff":0.05,"doubleSided":true},{"pbrMetallicRoughness":{"metallicFactor":0,"roughnessFactor":1},"alphaMode":"MASK","alphaCutoff":0.05,"doubleSided":true},{"pbrMetallicRoughness":{"metallicFactor":0,"roughnessFactor":1},"alphaMode":"MASK","alphaCutoff":0.05,"doubleSided":true},{"pbrMetallicRoughness":{"metallicFactor":0,"roughnessFactor":1},"alphaMode":"MASK","alphaCutoff":0.05,"doubleSided":true},{"pbrMetallicRoughness":{"metallicFactor":0,"roughnessFactor":1},"alphaMode":"MASK","alphaCutoff":0.05,"doubleSided":true},{"pbrMetallicRoughness":{"metallicFactor":0,"roughnessFactor":1,"baseColorTexture":{"index":0}},"alphaMode":"MASK","alphaCutoff":0.05,"doubleSided":true}],"meshes":[{"primitives":[{"mode":4,"attributes":{"POSITION":0,"NORMAL":1,"TEXCOORD_0":2},"indices":3,"material":0}]},{"primitives":[{"mode":4,"attributes":{"POSITION":4,"NORMAL":5,"TEXCOORD_0":6},"indices":7,"material":1}]},{"primitives":[{"mode":4,"attributes":{"POSITION":8,"NORMAL":9,"TEXCOORD_0":10},"indices":11,"material":2}]},{"primitives":[{"mode":4,"attributes":{"POSITION":12,"NORMAL":13,"TEXCOORD_0":14},"indices":15,"material":1}]},{"primitives":[{"mode":4,"attributes":{"POSITION":16,"NORMAL":17,"TEXCOORD_0":18},"indices":19,"material":3}]},{"primitives":[{"mode":4,"attributes":{"POSITION":20,"NORMAL":21,"TEXCOORD_0":22},"indices":23,"material":4}]},{"primitives":[{"mode":4,"attributes":{"POSITION":24,"NORMAL":25,"TEXCOORD_0":26},"indices":27,"material":5}]}],"textures":[{"sampler":0,"source":0,"name":"texture"}],"samplers":[{"magFilter":9728,"minFilter":9728,"wrapS":33071,"wrapT":33071}],"images":[{"mimeType":"image/png","name":"steam.png","uri":"steam.png"}],"animations":[{"name":"animation","samplers":[{"input":28,"output":29,"interpolation":"LINEAR"},{"input":30,"output":31,"interpolation":"LINEAR"},{"input":32,"output":33,"interpolation":"LINEAR"},{"input":34,"output":35,"interpolation":"LINEAR"},{"input":36,"output":37,"interpolation":"LINEAR"}],"channels":[{"sampler":0,"target":{"node":12,"path":"rotation"}},{"sampler":1,"target":{"node":12,"path":"translation"}},{"sampler":2,"target":{"node":8,"path":"translation"}},{"sampler":3,"target":{"node":7,"path":"rotation"}},{"sampler":4,"target":{"node":7,"path":"translation"}}]}]}