{"asset":{"version":"2.0","generator":"Blockbench 4.12.5 glTF exporter"},"scenes":[{"nodes":[4],"name":"blockbench_export"}],"scene":0,"nodes":[{"translation":[0,0,-4.375],"name":"sight_glass","mesh":0},{"name":"sight_glass","children":[0]},{"translation":[0,0.625,-3.75],"name":"water","mesh":1},{"name":"sight_glass_water","children":[2]},{"children":[1,3]}],"bufferViews":[{"buffer":0,"byteOffset":0,"byteLength":864,"target":34962,"byteStride":12},{"buffer":0,"byteOffset":864,"byteLength":864,"target":34962,"byteStride":12},{"buffer":0,"byteOffset":1728,"byteLength":576,"target":34962,"byteStride":8},{"buffer":0,"byteOffset":2304,"byteLength":216,"target":34963},{"buffer":0,"byteOffset":2520,"byteLength":288,"target":34962,"byteStride":12},{"buffer":0,"byteOffset":2808,"byteLength":288,"target":34962,"byteStride":12},{"buffer":0,"byteOffset":3096,"byteLength":192,"target":34962,"byteStride":8},{"buffer":0,"byteOffset":3288,"byteLength":72,"target":34963},{"buffer":0,"byteOffset":3360,"byteLength":8},{"buffer":0,"byteOffset":3368,"byteLength":24},{"buffer":0,"byteOffset":3392,"byteLength":8},{"buffer":0,"byteOffset":3400,"byteLength":24}],"buffers":[{"byteLength":3424,"uri":"data:application/octet-stream;base64,"}],"accessors":[{"bufferView":0,"componentType":5126,"count":72,"max":[1.25,10,1.875],"min":[-1.25,0,-1.25],"type":"VEC3"},{"bufferView":1,"componentType":5126,"count":72,"max":[1,1,1],"min":[-1,-1,-1],"type":"VEC3"},{"bufferView":2,"componentType":5126,"count":72,"max":[0.6875,0.625],"min":[0,0],"type":"VEC2"},{"bufferView":3,"componentType":5123,"count":108,"max":[71],"min":[0],"type":"SCALAR"},{"bufferView":4,"componentType":5126,"count":24,"max":[0.6875,0.625,0.6875],"min":[-0.6875,0,-0.6875],"type":"VEC3"},{"bufferView":5,"componentType":5126,"count":24,"max":[1,1,1],"min":[-1,-1,-1],"type":"VEC3"},{"bufferView":6,"componentType":5126,"count":24,"max":[0.25,0.25],"min":[0,0],"type":"VEC2"},{"bufferView":7,"componentType":5123,"count":36,"max":[23],"min":[0],"type":"SCALAR"},{"bufferView":8,"componentType":5126,"count":2,"max":[1],"min":[0],"type":"SCALAR"},{"bufferView":9,"componentType":5126,"count":2,"max":[0,0,0],"min":[0,-8.125,0],"type":"VEC3"},{"bufferView":10,"componentType":5126,"count":2,"max":[1],"min":[0],"type":"SCALAR"},{"bufferView":11,"componentType":5126,"count":2,"max":[1,14,1],"min":[1,0,1],"type":"VEC3"}],"materials":[{"pbrMetallicRoughness":{"metallicFactor":0,"roughnessFactor":1,"baseColorTexture":{"index":0}},"alphaMode":"MASK","alphaCutoff":0.05,"doubleSided":true},{"pbrMetallicRoughness":{"metallicFactor":0,"roughnessFactor":1,"baseColorTexture":{"index":1}},"alphaMode":"MASK","alphaCutoff":0.05,"doubleSided":true}],"textures":[{"sampler":0,"source":0,"name":"steam_sight_glass"},{"sampler":1,"source":1,"name":"steam_sight_glass_water_texture"}],"samplers":[{"magFilter":9728,"minFilter":9728,"wrapS":33071,"wrapT":33071},{"magFilter":9728,"minFilter":9728,"wrapS":33071,"wrapT":33071}],"images":[{"mimeType":"image/png","name":"steam_sight_glass.png","uri":"steam_sight_glass.png"},{"mimeType":"image/png","name":"steam_sight_glass_water_texture.png","uri":"steam_sight_glass_water_texture.png"}],"meshes":[{"primitives":[{"mode":4,"attributes":{"POSITION":0,"NORMAL":1,"TEXCOORD_0":2},"indices":3,"material":0}]},{"primitives":[{"mode":4,"attributes":{"POSITION":4,"NORMAL":5,"TEXCOORD_0":6},"indices":7,"material":1}]}],"animations":[{"name":"animation","samplers":[{"input":8,"output":9,"interpolation":"LINEAR"},{"input":10,"output":11,"interpolation":"LINEAR"}],"channels":[{"sampler":0,"target":{"node":3,"path":"translation"}},{"sampler":1,"target":{"node":3,"path":"scale"}}]}]}