{"asset":{"version":"2.0","generator":"Blockbench 4.12.5 glTF exporter"},"scenes":[{"nodes":[6],"name":"blockbench_export"}],"scene":0,"nodes":[{"name":"firebox","mesh":0},{"translation":[-9.375,-5,0],"name":"firebox","children":[0]},{"translation":[0.3125,3.75,5.625],"name":"door_hinge","mesh":1},{"rotation":[0,0,0.6427876096865393,0.766044443118978],"translation":[0,3.75,5.625],"name":"left_door","mesh":2},{"rotation":[0,0,-0.6427876096865393,0.766044443118978],"translation":[0,3.75,5.625],"name":"left_door","mesh":3},{"name":"door","children":[2,3,4]},{"children":[1,5]}],"bufferViews":[{"buffer":0,"byteOffset":0,"byteLength":4896,"target":34962,"byteStride":12},{"buffer":0,"byteOffset":4896,"byteLength":4896,"target":34962,"byteStride":12},{"buffer":0,"byteOffset":9792,"byteLength":3264,"target":34962,"byteStride":8},{"buffer":0,"byteOffset":13056,"byteLength":1200,"target":34963},{"buffer":0,"byteOffset":14256,"byteLength":288,"target":34962,"byteStride":12},{"buffer":0,"byteOffset":14544,"byteLength":288,"target":34962,"byteStride":12},{"buffer":0,"byteOffset":14832,"byteLength":192,"target":34962,"byteStride":8},{"buffer":0,"byteOffset":15024,"byteLength":72,"target":34963},{"buffer":0,"byteOffset":15096,"byteLength":288,"target":34962,"byteStride":12},{"buffer":0,"byteOffset":15384,"byteLength":288,"target":34962,"byteStride":12},{"buffer":0,"byteOffset":15672,"byteLength":192,"target":34962,"byteStride":8},{"buffer":0,"byteOffset":15864,"byteLength":72,"target":34963},{"buffer":0,"byteOffset":15936,"byteLength":288,"target":34962,"byteStride":12},{"buffer":0,"byteOffset":16224,"byteLength":288,"target":34962,"byteStride":12},{"buffer":0,"byteOffset":16512,"byteLength":192,"target":34962,"byteStride":8},{"buffer":0,"byteOffset":16704,"byteLength":72,"target":34963}],"buffers":[{"byteLength":16776,"uri":"data:application/octet-stream;base64,"}],"accessors":[{"bufferView":0,"componentType":5126,"count":408,"max":[14.375,11.25,5],"min":[4.375,-2.220446049250313e-15,-5],"type":"VEC3"},{"bufferView":1,"componentType":5126,"count":408,"max":[1,1,1],"min":[-1,-1,-1],"type":"VEC3"},{"bufferView":2,"componentType":5126,"count":408,"max":[0.59375,0.546875],"min":[0,0],"type":"VEC2"},{"bufferView":3,"componentType":5123,"count":600,"max":[407],"min":[0],"type":"SCALAR"},{"bufferView":4,"componentType":5126,"count":24,"max":[0,0.625,0.15625],"min":[-0.625,-0.625,-0.625],"type":"VEC3"},{"bufferView":5,"componentType":5126,"count":24,"max":[1,1,1],"min":[-1,-1,-1],"type":"VEC3"},{"bufferView":6,"componentType":5126,"count":24,"max":[0.5,0.5],"min":[0.28125,0.03125],"type":"VEC2"},{"bufferView":7,"componentType":5123,"count":36,"max":[23],"min":[0],"type":"SCALAR"},{"bufferView":8,"componentType":5126,"count":24,"max":[4.375,0,0],"min":[0,-4.375,-0.625],"type":"VEC3"},{"bufferView":9,"componentType":5126,"count":24,"max":[1,1,1],"min":[-1,-1,-1],"type":"VEC3"},{"bufferView":10,"componentType":5126,"count":24,"max":[0.6875,0.65625],"min":[0.03125,0],"type":"VEC2"},{"bufferView":11,"componentType":5123,"count":36,"max":[23],"min":[0],"type":"SCALAR"},{"bufferView":12,"componentType":5126,"count":24,"max":[0,0,0],"min":[-4.375,-4.375,-0.625],"type":"VEC3"},{"bufferView":13,"componentType":5126,"count":24,"max":[1,1,1],"min":[-1,-1,-1],"type":"VEC3"},{"bufferView":14,"componentType":5126,"count":24,"max":[0.65625,0.65625],"min":[0,0],"type":"VEC2"},{"bufferView":15,"componentType":5123,"count":36,"max":[23],"min":[0],"type":"SCALAR"}],"materials":[{"pbrMetallicRoughness":{"metallicFactor":0,"roughnessFactor":1,"baseColorTexture":{"index":0}},"alphaMode":"MASK","alphaCutoff":0.05,"doubleSided":true},{"pbrMetallicRoughness":{"metallicFactor":0,"roughnessFactor":1,"baseColorTexture":{"index":1}},"alphaMode":"MASK","alphaCutoff":0.05,"doubleSided":true}],"textures":[{"sampler":0,"source":0,"name":"steam_firebox"},{"sampler":1,"source":1,"name":"texture"}],"samplers":[{"magFilter":9728,"minFilter":9728,"wrapS":33071,"wrapT":33071},{"magFilter":9728,"minFilter":9728,"wrapS":33071,"wrapT":33071}],"images":[{"mimeType":"image/png","name":"steam_firebox.png","uri":"steam_firebox.png"},{"mimeType":"image/png","name":"texture","uri":"texture.png"}],"meshes":[{"primitives":[{"mode":4,"attributes":{"POSITION":0,"NORMAL":1,"TEXCOORD_0":2},"indices":3,"material":0}]},{"primitives":[{"mode":4,"attributes":{"POSITION":4,"NORMAL":5,"TEXCOORD_0":6},"indices":7,"material":1}]},{"primitives":[{"mode":4,"attributes":{"POSITION":8,"NORMAL":9,"TEXCOORD_0":10},"indices":11,"material":1}]},{"primitives":[{"mode":4,"attributes":{"POSITION":12,"NORMAL":13,"TEXCOORD_0":14},"indices":15,"material":1}]}]}