{"asset":{"version":"2.0","generator":"Blockbench 4.12.5 glTF exporter"},"scenes":[{"nodes":[12],"name":"blockbench_export"}],"scene":0,"nodes":[{"translation":[0,4.375,0],"name":"base","mesh":0},{"translation":[0,0,1.875],"name":"base","children":[0]},{"rotation":[0,0,0.7071067811865475,0.7071067811865476],"translation":[-0.06250000000000006,0,0],"name":"spokes","mesh":1},{"translation":[0,-0.625,0],"name":"bearing","mesh":2},{"translation":[0.3125,0,6.25],"name":"connecting_rod","mesh":3},{"translation":[0,-0.625,6.5625],"name":"bearing","mesh":4},{"translation":[-1.875,0,3.125],"name":"connecting_rod","children":[3,4,5]},{"rotation":[0,0,0.7071067811865475,0.7071067811865476],"translation":[1.875,0,3.125],"name":"conrod_bearing","mesh":5},{"translation":[1.875,6.875,-10],"name":"flywheel","children":[2,6,7]},{"translation":[-0.3125,0,-7.5],"name":"piston","mesh":6},{"translation":[0.625,-0.625,-0.9375],"name":"bearing","mesh":7},{"translation":[0,6.875,0.625],"name":"piston","children":[9,10]},{"children":[1,8,11]}],"bufferViews":[{"buffer":0,"byteOffset":0,"byteLength":1152,"target":34962,"byteStride":12},{"buffer":0,"byteOffset":1152,"byteLength":1152,"target":34962,"byteStride":12},{"buffer":0,"byteOffset":2304,"byteLength":768,"target":34962,"byteStride":8},{"buffer":0,"byteOffset":3072,"byteLength":288,"target":34963},{"buffer":0,"byteOffset":3360,"byteLength":864,"target":34962,"byteStride":12},{"buffer":0,"byteOffset":4224,"byteLength":864,"target":34962,"byteStride":12},{"buffer":0,"byteOffset":5088,"byteLength":576,"target":34962,"byteStride":8},{"buffer":0,"byteOffset":5664,"byteLength":144,"target":34963},{"buffer":0,"byteOffset":5808,"byteLength":288,"target":34962,"byteStride":12},{"buffer":0,"byteOffset":6096,"byteLength":288,"target":34962,"byteStride":12},{"buffer":0,"byteOffset":6384,"byteLength":192,"target":34962,"byteStride":8},{"buffer":0,"byteOffset":6576,"byteLength":72,"target":34963},{"buffer":0,"byteOffset":6648,"byteLength":288,"target":34962,"byteStride":12},{"buffer":0,"byteOffset":6936,"byteLength":288,"target":34962,"byteStride":12},{"buffer":0,"byteOffset":7224,"byteLength":192,"target":34962,"byteStride":8},{"buffer":0,"byteOffset":7416,"byteLength":72,"target":34963},{"buffer":0,"byteOffset":7488,"byteLength":288,"target":34962,"byteStride":12},{"buffer":0,"byteOffset":7776,"byteLength":288,"target":34962,"byteStride":12},{"buffer":0,"byteOffset":8064,"byteLength":192,"target":34962,"byteStride":8},{"buffer":0,"byteOffset":8256,"byteLength":72,"target":34963},{"buffer":0,"byteOffset":8328,"byteLength":5184,"target":34962,"byteStride":12},{"buffer":0,"byteOffset":13512,"byteLength":5184,"target":34962,"byteStride":12},{"buffer":0,"byteOffset":18696,"byteLength":3456,"target":34962,"byteStride":8},{"buffer":0,"byteOffset":22152,"byteLength":1152,"target":34963},{"buffer":0,"byteOffset":23304,"byteLength":288,"target":34962,"byteStride":12},{"buffer":0,"byteOffset":23592,"byteLength":288,"target":34962,"byteStride":12},{"buffer":0,"byteOffset":23880,"byteLength":192,"target":34962,"byteStride":8},{"buffer":0,"byteOffset":24072,"byteLength":72,"target":34963},{"buffer":0,"byteOffset":24144,"byteLength":288,"target":34962,"byteStride":12},{"buffer":0,"byteOffset":24432,"byteLength":288,"target":34962,"byteStride":12},{"buffer":0,"byteOffset":24720,"byteLength":192,"target":34962,"byteStride":8},{"buffer":0,"byteOffset":24912,"byteLength":72,"target":34963},{"buffer":0,"byteOffset":24984,"byteLength":16},{"buffer":0,"byteOffset":25000,"byteLength":64},{"buffer":0,"byteOffset":25064,"byteLength":4},{"buffer":0,"byteOffset":25068,"byteLength":12},{"buffer":0,"byteOffset":25080,"byteLength":4},{"buffer":0,"byteOffset":25084,"byteLength":16},{"buffer":0,"byteOffset":25100,"byteLength":100},{"buffer":0,"byteOffset":25200,"byteLength":300},{"buffer":0,"byteOffset":25500,"byteLength":100},{"buffer":0,"byteOffset":25600,"byteLength":400}],"buffers":[{"byteLength":26000,"uri":"data:application/octet-stream;base64,"}],"accessors":[{"bufferView":0,"componentType":5126,"count":96,"max":[3.125,5,3.125],"min":[-3.125,-4.375,-16.875],"type":"VEC3"},{"bufferView":1,"componentType":5126,"count":96,"max":[1,1,1],"min":[-1,-1,-1],"type":"VEC3"},{"bufferView":2,"componentType":5126,"count":96,"max":[0.71875,0.828125],"min":[0,0],"type":"VEC2"},{"bufferView":3,"componentType":5123,"count":144,"max":[95],"min":[0],"type":"SCALAR"},{"bufferView":4,"componentType":5126,"count":72,"max":[4.0625,0,4.0625],"min":[-4.0625,-0.125,-4.0625],"type":"VEC3"},{"bufferView":5,"componentType":5126,"count":72,"max":[0,1,1.9581090928760196e-16],"min":[-5.191113415048496e-16,1,0],"type":"VEC3"},{"bufferView":6,"componentType":5126,"count":72,"max":[0.71875,0.78125],"min":[0,0],"type":"VEC2"},{"bufferView":7,"componentType":5123,"count":72,"max":[71],"min":[0],"type":"SCALAR"},{"bufferView":8,"componentType":5126,"count":24,"max":[0.9375,1.5625,0.9375],"min":[0.3125,-0.3125,-0.9375],"type":"VEC3"},{"bufferView":9,"componentType":5126,"count":24,"max":[1,1,1],"min":[-1,-1,-1],"type":"VEC3"},{"bufferView":10,"componentType":5126,"count":24,"max":[0.09375,0.09375],"min":[0,0],"type":"VEC2"},{"bufferView":11,"componentType":5123,"count":36,"max":[23],"min":[0],"type":"SCALAR"},{"bufferView":12,"componentType":5126,"count":24,"max":[0.625,0.625,-0.625],"min":[0,-0.625,-5.3125],"type":"VEC3"},{"bufferView":13,"componentType":5126,"count":24,"max":[1,1,1],"min":[-1,-1,-1],"type":"VEC3"},{"bufferView":14,"componentType":5126,"count":24,"max":[0.46875,0.59375],"min":[0.125,0.125],"type":"VEC2"},{"bufferView":15,"componentType":5123,"count":36,"max":[23],"min":[0],"type":"SCALAR"},{"bufferView":16,"componentType":5126,"count":24,"max":[0.9375,1.5625,0.9375],"min":[0.3125,-0.3125,-0.9375],"type":"VEC3"},{"bufferView":17,"componentType":5126,"count":24,"max":[1,1,1],"min":[-1,-1,-1],"type":"VEC3"},{"bufferView":18,"componentType":5126,"count":24,"max":[0.09375,0.09375],"min":[0,0],"type":"VEC2"},{"bufferView":19,"componentType":5123,"count":36,"max":[23],"min":[0],"type":"SCALAR"},{"bufferView":20,"componentType":5126,"count":432,"max":[5,3.125,1.875],"min":[-5,1.25,-8.125],"type":"VEC3"},{"bufferView":21,"componentType":5126,"count":432,"max":[1,1,1],"min":[-1,-1,-1],"type":"VEC3"},{"bufferView":22,"componentType":5126,"count":432,"max":[0.2588191032409668,0.2588191032409668],"min":[0,0],"type":"VEC2"},{"bufferView":23,"componentType":5123,"count":576,"max":[431],"min":[0],"type":"SCALAR"},{"bufferView":24,"componentType":5126,"count":24,"max":[0.625,0.625,17.5],"min":[0,-0.625,7.5],"type":"VEC3"},{"bufferView":25,"componentType":5126,"count":24,"max":[1,1,1],"min":[-1,-1,-1],"type":"VEC3"},{"bufferView":26,"componentType":5126,"count":24,"max":[0.5625,0.6875],"min":[0,0],"type":"VEC2"},{"bufferView":27,"componentType":5123,"count":36,"max":[23],"min":[0],"type":"SCALAR"},{"bufferView":28,"componentType":5126,"count":24,"max":[-0.3125,1.5625,0.9375],"min":[-0.9375,-0.3125,-0.9375],"type":"VEC3"},{"bufferView":29,"componentType":5126,"count":24,"max":[1,1,1],"min":[-1,-1,-1],"type":"VEC3"},{"bufferView":30,"componentType":5126,"count":24,"max":[0.09375,0.09375],"min":[0,0],"type":"VEC2"},{"bufferView":31,"componentType":5123,"count":36,"max":[23],"min":[0],"type":"SCALAR"},{"bufferView":32,"componentType":5126,"count":4,"max":[1],"min":[0],"type":"SCALAR"},{"bufferView":33,"componentType":5126,"count":4,"max":[0,0,0,1],"min":[-0.8660253882408142,0,0,-1],"type":"VEC4"},{"bufferView":34,"componentType":5126,"count":1,"max":[0],"min":[0],"type":"SCALAR"},{"bufferView":35,"componentType":5126,"count":1,"max":[1.875,6.875,-10],"min":[1.875,6.875,-10],"type":"VEC3"},{"bufferView":36,"componentType":5126,"count":1,"max":[0],"min":[0],"type":"SCALAR"},{"bufferView":37,"componentType":5126,"count":1,"max":[0,0,0,1],"min":[0,0,0,1],"type":"VEC4"},{"bufferView":38,"componentType":5126,"count":25,"max":[1],"min":[0],"type":"SCALAR"},{"bufferView":39,"componentType":5126,"count":25,"max":[0.03125,6.875,0.625],"min":[0.03125,6.875,-5.625],"type":"VEC3"},{"bufferView":40,"componentType":5126,"count":25,"max":[1],"min":[0],"type":"SCALAR"},{"bufferView":41,"componentType":5126,"count":25,"max":[1,0,0,1],"min":[0,0,0,-1],"type":"VEC4"}],"materials":[{"pbrMetallicRoughness":{"metallicFactor":0,"roughnessFactor":1,"baseColorTexture":{"index":0}},"alphaMode":"MASK","alphaCutoff":0.05,"doubleSided":true},{"pbrMetallicRoughness":{"metallicFactor":0,"roughnessFactor":1,"baseColorTexture":{"index":1}},"alphaMode":"MASK","alphaCutoff":0.05,"doubleSided":true},{"pbrMetallicRoughness":{"metallicFactor":0,"roughnessFactor":1},"alphaMode":"MASK","alphaCutoff":0.05,"doubleSided":true},{"pbrMetallicRoughness":{"metallicFactor":0,"roughnessFactor":1,"baseColorTexture":{"index":2}},"alphaMode":"MASK","alphaCutoff":0.05,"doubleSided":true},{"pbrMetallicRoughness":{"metallicFactor":0,"roughnessFactor":1},"alphaMode":"MASK","alphaCutoff":0.05,"doubleSided":true}],"textures":[{"sampler":0,"source":0,"name":"steam_engine_base.png"},{"sampler":1,"source":1,"name":"texture"},{"sampler":2,"source":2,"name":"steam_engine_connecting_rod.png"}],"samplers":[{"magFilter":9728,"minFilter":9728,"wrapS":33071,"wrapT":33071},{"magFilter":9728,"minFilter":9728,"wrapS":33071,"wrapT":33071},{"magFilter":9728,"minFilter":9728,"wrapS":33071,"wrapT":33071}],"images":[{"mimeType":"image/png","name":"steam_engine_base.png","uri":"steam_engine_base.png"},{"mimeType":"image/png","name":"steam_engine_flywheel_spokes.png","uri":"steam_engine_flywheel_spokes.png"},{"mimeType":"image/png","name":"steam_engine_connecting_rod.png","uri":"steam_engine_connecting_rod.png"}],"meshes":[{"primitives":[{"mode":4,"attributes":{"POSITION":0,"NORMAL":1,"TEXCOORD_0":2},"indices":3,"material":0}]},{"primitives":[{"mode":4,"attributes":{"POSITION":4,"NORMAL":5,"TEXCOORD_0":6},"indices":7,"material":1}]},{"primitives":[{"mode":4,"attributes":{"POSITION":8,"NORMAL":9,"TEXCOORD_0":10},"indices":11,"material":2}]},{"primitives":[{"mode":4,"attributes":{"POSITION":12,"NORMAL":13,"TEXCOORD_0":14},"indices":15,"material":3}]},{"primitives":[{"mode":4,"attributes":{"POSITION":16,"NORMAL":17,"TEXCOORD_0":18},"indices":19,"material":2}]},{"primitives":[{"mode":4,"attributes":{"POSITION":20,"NORMAL":21,"TEXCOORD_0":22},"indices":23,"material":4}]},{"primitives":[{"mode":4,"attributes":{"POSITION":24,"NORMAL":25,"TEXCOORD_0":26},"indices":27,"material":3}]},{"primitives":[{"mode":4,"attributes":{"POSITION":28,"NORMAL":29,"TEXCOORD_0":30},"indices":31,"material":2}]}],"animations":[{"name":"animation","samplers":[{"input":32,"output":33,"interpolation":"LINEAR"},{"input":34,"output":35,"interpolation":"LINEAR"},{"input":36,"output":37,"interpolation":"LINEAR"},{"input":38,"output":39,"interpolation":"LINEAR"},{"input":40,"output":41,"interpolation":"LINEAR"}],"channels":[{"sampler":0,"target":{"node":8,"path":"rotation"}},{"sampler":1,"target":{"node":8,"path":"translation"}},{"sampler":2,"target":{"node":11,"path":"rotation"}},{"sampler":3,"target":{"node":11,"path":"translation"}},{"sampler":4,"target":{"node":6,"path":"rotation"}}]}]}