{"asset":{"version":"2.0","generator":"Blockbench 4.12.5 glTF exporter"},"scenes":[{"nodes":[11],"name":"blockbench_export"}],"scene":0,"nodes":[{"translation":[0,0,1.875],"name":"base2"},{"translation":[0,4.375,0],"name":"base","mesh":0},{"translation":[0,0,1.875],"name":"base","children":[1]},{"rotation":[0,0,0.7071067811865475,0.7071067811865476],"translation":[2.5,-1.1102230246251565e-15,0],"name":"flywheel","mesh":1},{"scale":[0.018711018711018712,0.018711018711018712,0.018711018711018712],"name":"locator"},{"translation":[-1.875,-1.1102230246251565e-15,3.125],"name":"locator","children":[4]},{"translation":[1.875,6.875000000000001,-10],"name":"flywheel","children":[3,5]},{"translation":[0,6.25,3.125],"name":"piston","mesh":2},{"name":"connecting_rod","mesh":3},{"translation":[0,6.25,0],"name":"connecting_rod","children":[8]},{"name":"piston","children":[7,9]},{"children":[0,2,6,10]}],"bufferViews":[{"buffer":0,"byteOffset":0,"byteLength":1152,"target":34962,"byteStride":12},{"buffer":0,"byteOffset":1152,"byteLength":1152,"target":34962,"byteStride":12},{"buffer":0,"byteOffset":2304,"byteLength":768,"target":34962,"byteStride":8},{"buffer":0,"byteOffset":3072,"byteLength":288,"target":34963},{"buffer":0,"byteOffset":3360,"byteLength":2880,"target":34962,"byteStride":12},{"buffer":0,"byteOffset":6240,"byteLength":2880,"target":34962,"byteStride":12},{"buffer":0,"byteOffset":9120,"byteLength":1920,"target":34962,"byteStride":8},{"buffer":0,"byteOffset":11040,"byteLength":576,"target":34963},{"buffer":0,"byteOffset":11616,"byteLength":288,"target":34962,"byteStride":12},{"buffer":0,"byteOffset":11904,"byteLength":288,"target":34962,"byteStride":12},{"buffer":0,"byteOffset":12192,"byteLength":192,"target":34962,"byteStride":8},{"buffer":0,"byteOffset":12384,"byteLength":72,"target":34963},{"buffer":0,"byteOffset":12456,"byteLength":288,"target":34962,"byteStride":12},{"buffer":0,"byteOffset":12744,"byteLength":288,"target":34962,"byteStride":12},{"buffer":0,"byteOffset":13032,"byteLength":192,"target":34962,"byteStride":8},{"buffer":0,"byteOffset":13224,"byteLength":72,"target":34963},{"buffer":0,"byteOffset":13296,"byteLength":20},{"buffer":0,"byteOffset":13316,"byteLength":80},{"buffer":0,"byteOffset":13396,"byteLength":4},{"buffer":0,"byteOffset":13400,"byteLength":12},{"buffer":0,"byteOffset":13412,"byteLength":64},{"buffer":0,"byteOffset":13476,"byteLength":192},{"buffer":0,"byteOffset":13668,"byteLength":72},{"buffer":0,"byteOffset":13740,"byteLength":288},{"buffer":0,"byteOffset":14028,"byteLength":8},{"buffer":0,"byteOffset":14036,"byteLength":24}],"buffers":[{"byteLength":14060,"uri":"data:application/octet-stream;base64,"}],"accessors":[{"bufferView":0,"componentType":5126,"count":96,"max":[3.125,5,3.125],"min":[-3.125,-4.375,-16.875],"type":"VEC3"},{"bufferView":1,"componentType":5126,"count":96,"max":[1,1,1],"min":[-1,-1,-1],"type":"VEC3"},{"bufferView":2,"componentType":5126,"count":96,"max":[0.71875,0.828125],"min":[0,0],"type":"VEC2"},{"bufferView":3,"componentType":5123,"count":144,"max":[95],"min":[0],"type":"SCALAR"},{"bufferView":4,"componentType":5126,"count":240,"max":[5,3.75,5],"min":[-5,1.875,-5],"type":"VEC3"},{"bufferView":5,"componentType":5126,"count":240,"max":[1,1,1],"min":[-1,-1,-1],"type":"VEC3"},{"bufferView":6,"componentType":5126,"count":240,"max":[0.935337483882904,0.9375],"min":[0,0],"type":"VEC2"},{"bufferView":7,"componentType":5123,"count":288,"max":[239],"min":[0],"type":"SCALAR"},{"bufferView":8,"componentType":5126,"count":24,"max":[0.625,1.25,7.5],"min":[-0.625,0,-3.75],"type":"VEC3"},{"bufferView":9,"componentType":5126,"count":24,"max":[1,1,1],"min":[-1,-1,-1],"type":"VEC3"},{"bufferView":10,"componentType":5126,"count":24,"max":[0.5625,0.6875],"min":[0,0],"type":"VEC2"},{"bufferView":11,"componentType":5123,"count":36,"max":[23],"min":[0],"type":"SCALAR"},{"bufferView":12,"componentType":5126,"count":24,"max":[0.625,1.25,-0.625],"min":[-0.625,0,-7.5],"type":"VEC3"},{"bufferView":13,"componentType":5126,"count":24,"max":[1,1,1],"min":[-1,-1,-1],"type":"VEC3"},{"bufferView":14,"componentType":5126,"count":24,"max":[0.46875,0.59375],"min":[0.125,0.125],"type":"VEC2"},{"bufferView":15,"componentType":5123,"count":36,"max":[23],"min":[0],"type":"SCALAR"},{"bufferView":16,"componentType":5126,"count":5,"max":[1],"min":[0],"type":"SCALAR"},{"bufferView":17,"componentType":5126,"count":5,"max":[0,0,0,1],"min":[-1,0,0,-1],"type":"VEC4"},{"bufferView":18,"componentType":5126,"count":1,"max":[0],"min":[0],"type":"SCALAR"},{"bufferView":19,"componentType":5126,"count":1,"max":[1.875,6.875,-10],"min":[1.875,6.875,-10],"type":"VEC3"},{"bufferView":20,"componentType":5126,"count":16,"max":[1],"min":[0],"type":"SCALAR"},{"bufferView":21,"componentType":5126,"count":16,"max":[0,0,0],"min":[0,0,-6.25],"type":"VEC3"},{"bufferView":22,"componentType":5126,"count":18,"max":[1],"min":[0],"type":"SCALAR"},{"bufferView":23,"componentType":5126,"count":18,"max":[0.24615329504013062,0,0,1],"min":[-0.22495105862617493,0,0,0.9692308902740479],"type":"VEC4"},{"bufferView":24,"componentType":5126,"count":2,"max":[1],"min":[0],"type":"SCALAR"},{"bufferView":25,"componentType":5126,"count":2,"max":[0,6.25,0],"min":[0,6.25,0],"type":"VEC3"}],"materials":[{"pbrMetallicRoughness":{"metallicFactor":0,"roughnessFactor":1,"baseColorTexture":{"index":0}},"alphaMode":"MASK","alphaCutoff":0.05,"doubleSided":true},{"pbrMetallicRoughness":{"metallicFactor":0,"roughnessFactor":1,"baseColorTexture":{"index":1}},"alphaMode":"MASK","alphaCutoff":0.05,"doubleSided":true},{"pbrMetallicRoughness":{"metallicFactor":0,"roughnessFactor":1,"baseColorTexture":{"index":2}},"alphaMode":"MASK","alphaCutoff":0.05,"doubleSided":true}],"textures":[{"sampler":0,"source":0,"name":"base"},{"sampler":1,"source":1,"name":"texture"},{"sampler":2,"source":2,"name":"steam_engine_connecting_rod"}],"samplers":[{"magFilter":9728,"minFilter":9728,"wrapS":33071,"wrapT":33071},{"magFilter":9728,"minFilter":9728,"wrapS":33071,"wrapT":33071},{"magFilter":9728,"minFilter":9728,"wrapS":33071,"wrapT":33071}],"images":[{"mimeType":"image/png","name":"steam_engine_base.png","uri":"steam_engine_base.png"},{"mimeType":"image/png","name":"steam_engine.png","uri":"steam_engine.png"},{"mimeType":"image/png","name":"steam_engine_connecting_rod.png","uri":"steam_engine_connecting_rod.png"}],"meshes":[{"primitives":[{"mode":4,"attributes":{"POSITION":0,"NORMAL":1,"TEXCOORD_0":2},"indices":3,"material":0}]},{"primitives":[{"mode":4,"attributes":{"POSITION":4,"NORMAL":5,"TEXCOORD_0":6},"indices":7,"material":1}]},{"primitives":[{"mode":4,"attributes":{"POSITION":8,"NORMAL":9,"TEXCOORD_0":10},"indices":11,"material":2}]},{"primitives":[{"mode":4,"attributes":{"POSITION":12,"NORMAL":13,"TEXCOORD_0":14},"indices":15,"material":2}]}],"animations":[{"name":"animation","samplers":[{"input":16,"output":17,"interpolation":"LINEAR"},{"input":18,"output":19,"interpolation":"LINEAR"},{"input":20,"output":21,"interpolation":"LINEAR"},{"input":22,"output":23,"interpolation":"LINEAR"},{"input":24,"output":25,"interpolation":"LINEAR"}],"channels":[{"sampler":0,"target":{"node":6,"path":"rotation"}},{"sampler":1,"target":{"node":6,"path":"translation"}},{"sampler":2,"target":{"node":10,"path":"translation"}},{"sampler":3,"target":{"node":9,"path":"rotation"}},{"sampler":4,"target":{"node":9,"path":"translation"}}]}]}