{"asset":{"version":"2.0","generator":"Blockbench 4.12.5 glTF exporter"},"scenes":[{"nodes":[2],"name":"blockbench_export"}],"scene":0,"nodes":[{"name":"cube","mesh":0},{"translation":[-9.375,-5,0],"name":"bone","children":[0]},{"children":[1]}],"bufferViews":[{"buffer":0,"byteOffset":0,"byteLength":4896,"target":34962,"byteStride":12},{"buffer":0,"byteOffset":4896,"byteLength":4896,"target":34962,"byteStride":12},{"buffer":0,"byteOffset":9792,"byteLength":3264,"target":34962,"byteStride":8},{"buffer":0,"byteOffset":13056,"byteLength":1200,"target":34963}],"buffers":[{"byteLength":14256,"uri":"data:application/octet-stream;base64,"}],"accessors":[{"bufferView":0,"componentType":5126,"count":408,"max":[14.375,11.25,5],"min":[4.375,-2.220446049250313e-15,-5],"type":"VEC3"},{"bufferView":1,"componentType":5126,"count":408,"max":[1,1,1],"min":[-1,-1,-1],"type":"VEC3"},{"bufferView":2,"componentType":5126,"count":408,"max":[1,1],"min":[0,0],"type":"VEC2"},{"bufferView":3,"componentType":5123,"count":600,"max":[407],"min":[0],"type":"SCALAR"}],"materials":[{"pbrMetallicRoughness":{"metallicFactor":0,"roughnessFactor":1},"alphaMode":"MASK","alphaCutoff":0.05,"doubleSided":true}],"meshes":[{"primitives":[{"mode":4,"attributes":{"POSITION":0,"NORMAL":1,"TEXCOORD_0":2},"indices":3,"material":0}]}]}