{"asset":{"version":"2.0","generator":"Blockbench 4.12.5 glTF exporter"},"scenes":[{"nodes":[10],"name":"blockbench_export"}],"scene":0,"nodes":[{"name":"base","mesh":0},{"translation":[1.875,1.875,7.5],"name":"inlet_pipe","mesh":1},{"translation":[0,-5,1.875],"name":"base","children":[0,1]},{"rotation":[0,0,0.7071067811865475,0.7071067811865476],"translation":[2.5,0,0],"name":"flywheel_main","mesh":2},{"rotation":[0,0,0.7071067811865475,0.7071067811865476],"translation":[-0.06250000000000006,0,0],"name":"spokes","mesh":3},{"translation":[0,-0.625,0],"name":"connecting_rod","mesh":4},{"translation":[-1.875,0,3.125],"name":"connecting_rod","children":[5]},{"translation":[1.875,1.875,-10],"name":"flywheel","children":[3,4,6]},{"translation":[-0.3125,0,-7.5],"name":"piston","mesh":5},{"translation":[0,1.875,0.625],"name":"piston","children":[8]},{"children":[2,7,9]}],"bufferViews":[{"buffer":0,"byteOffset":0,"byteLength":1728,"target":34962,"byteStride":12},{"buffer":0,"byteOffset":1728,"byteLength":1728,"target":34962,"byteStride":12},{"buffer":0,"byteOffset":3456,"byteLength":1152,"target":34962,"byteStride":8},{"buffer":0,"byteOffset":4608,"byteLength":432,"target":34963},{"buffer":0,"byteOffset":5040,"byteLength":2592,"target":34962,"byteStride":12},{"buffer":0,"byteOffset":7632,"byteLength":2592,"target":34962,"byteStride":12},{"buffer":0,"byteOffset":10224,"byteLength":1728,"target":34962,"byteStride":8},{"buffer":0,"byteOffset":11952,"byteLength":648,"target":34963},{"buffer":0,"byteOffset":12600,"byteLength":5184,"target":34962,"byteStride":12},{"buffer":0,"byteOffset":17784,"byteLength":5184,"target":34962,"byteStride":12},{"buffer":0,"byteOffset":22968,"byteLength":3456,"target":34962,"byteStride":8},{"buffer":0,"byteOffset":26424,"byteLength":1152,"target":34963},{"buffer":0,"byteOffset":27576,"byteLength":864,"target":34962,"byteStride":12},{"buffer":0,"byteOffset":28440,"byteLength":864,"target":34962,"byteStride":12},{"buffer":0,"byteOffset":29304,"byteLength":576,"target":34962,"byteStride":8},{"buffer":0,"byteOffset":29880,"byteLength":144,"target":34963},{"buffer":0,"byteOffset":30024,"byteLength":864,"target":34962,"byteStride":12},{"buffer":0,"byteOffset":30888,"byteLength":864,"target":34962,"byteStride":12},{"buffer":0,"byteOffset":31752,"byteLength":576,"target":34962,"byteStride":8},{"buffer":0,"byteOffset":32328,"byteLength":216,"target":34963},{"buffer":0,"byteOffset":32544,"byteLength":576,"target":34962,"byteStride":12},{"buffer":0,"byteOffset":33120,"byteLength":576,"target":34962,"byteStride":12},{"buffer":0,"byteOffset":33696,"byteLength":384,"target":34962,"byteStride":8},{"buffer":0,"byteOffset":34080,"byteLength":144,"target":34963},{"buffer":0,"byteOffset":34224,"byteLength":16},{"buffer":0,"byteOffset":34240,"byteLength":64},{"buffer":0,"byteOffset":34304,"byteLength":4},{"buffer":0,"byteOffset":34308,"byteLength":12},{"buffer":0,"byteOffset":34320,"byteLength":4},{"buffer":0,"byteOffset":34324,"byteLength":16},{"buffer":0,"byteOffset":34340,"byteLength":100},{"buffer":0,"byteOffset":34440,"byteLength":300},{"buffer":0,"byteOffset":34740,"byteLength":100},{"buffer":0,"byteOffset":34840,"byteLength":400}],"buffers":[{"byteLength":35240,"uri":"data:application/octet-stream;base64,"}],"accessors":[{"bufferView":0,"componentType":5126,"count":144,"max":[5,8.75,13.125],"min":[-5,0,-16.875],"type":"VEC3"},{"bufferView":1,"componentType":5126,"count":144,"max":[1,1,1],"min":[-1,-1,-1],"type":"VEC3"},{"bufferView":2,"componentType":5126,"count":144,"max":[0.640625,0.4921875],"min":[0,0],"type":"VEC2"},{"bufferView":3,"componentType":5123,"count":216,"max":[143],"min":[0],"type":"SCALAR"},{"bufferView":4,"componentType":5126,"count":216,"max":[0,4.375,5.625],"min":[-3.125,-0.625,-6.875],"type":"VEC3"},{"bufferView":5,"componentType":5126,"count":216,"max":[1,1,1],"min":[-1,-1,-1],"type":"VEC3"},{"bufferView":6,"componentType":5126,"count":216,"max":[0.84375,0.84375],"min":[0,0],"type":"VEC2"},{"bufferView":7,"componentType":5123,"count":324,"max":[215],"min":[0],"type":"SCALAR"},{"bufferView":8,"componentType":5126,"count":432,"max":[5,3.75,5],"min":[-5,1.875,-5],"type":"VEC3"},{"bufferView":9,"componentType":5126,"count":432,"max":[1,1,1],"min":[-1,-1,-1],"type":"VEC3"},{"bufferView":10,"componentType":5126,"count":432,"max":[0.935337483882904,0.9375],"min":[0,0],"type":"VEC2"},{"bufferView":11,"componentType":5123,"count":576,"max":[431],"min":[0],"type":"SCALAR"},{"bufferView":12,"componentType":5126,"count":72,"max":[4.0625,-0.0625,4.0625],"min":[-4.0625,-0.0625,-4.0625],"type":"VEC3"},{"bufferView":13,"componentType":5126,"count":72,"max":[0,1,0],"min":[0,-1,0],"type":"VEC3"},{"bufferView":14,"componentType":5126,"count":72,"max":[0.71875,0.78125],"min":[0,0],"type":"VEC2"},{"bufferView":15,"componentType":5123,"count":72,"max":[71],"min":[0],"type":"SCALAR"},{"bufferView":16,"componentType":5126,"count":72,"max":[0.9375,1.5625,7.5],"min":[0.3125,-0.3125,-0.9375],"type":"VEC3"},{"bufferView":17,"componentType":5126,"count":72,"max":[1,1,1],"min":[-1,-1,-1],"type":"VEC3"},{"bufferView":18,"componentType":5126,"count":72,"max":[0.46875,0.5625],"min":[0,0],"type":"VEC2"},{"bufferView":19,"componentType":5123,"count":108,"max":[71],"min":[0],"type":"SCALAR"},{"bufferView":20,"componentType":5126,"count":48,"max":[0.625,0.9375,17.5],"min":[0,-0.9375,5.625],"type":"VEC3"},{"bufferView":21,"componentType":5126,"count":48,"max":[1,1,1],"min":[-1,-1,-1],"type":"VEC3"},{"bufferView":22,"componentType":5126,"count":48,"max":[0.5,0.6875],"min":[0,0],"type":"VEC2"},{"bufferView":23,"componentType":5123,"count":72,"max":[47],"min":[0],"type":"SCALAR"},{"bufferView":24,"componentType":5126,"count":4,"max":[1],"min":[0],"type":"SCALAR"},{"bufferView":25,"componentType":5126,"count":4,"max":[0,0,0,1],"min":[-0.8660253882408142,0,0,-1],"type":"VEC4"},{"bufferView":26,"componentType":5126,"count":1,"max":[0],"min":[0],"type":"SCALAR"},{"bufferView":27,"componentType":5126,"count":1,"max":[1.875,1.875,-10],"min":[1.875,1.875,-10],"type":"VEC3"},{"bufferView":28,"componentType":5126,"count":1,"max":[0],"min":[0],"type":"SCALAR"},{"bufferView":29,"componentType":5126,"count":1,"max":[0,0,0,1],"min":[0,0,0,1],"type":"VEC4"},{"bufferView":30,"componentType":5126,"count":25,"max":[1],"min":[0],"type":"SCALAR"},{"bufferView":31,"componentType":5126,"count":25,"max":[0.03125,1.875,0.625],"min":[0.03125,1.875,-5.625],"type":"VEC3"},{"bufferView":32,"componentType":5126,"count":25,"max":[1],"min":[0],"type":"SCALAR"},{"bufferView":33,"componentType":5126,"count":25,"max":[1,0,0,1],"min":[0,0,0,-1],"type":"VEC4"}],"materials":[{"pbrMetallicRoughness":{"metallicFactor":0,"roughnessFactor":1,"baseColorTexture":{"index":0}},"alphaMode":"MASK","alphaCutoff":0.05,"doubleSided":true},{"pbrMetallicRoughness":{"metallicFactor":0,"roughnessFactor":1,"baseColorTexture":{"index":1}},"alphaMode":"MASK","alphaCutoff":0.05,"doubleSided":true},{"pbrMetallicRoughness":{"metallicFactor":0,"roughnessFactor":1,"baseColorTexture":{"index":2}},"alphaMode":"MASK","alphaCutoff":0.05,"doubleSided":true},{"pbrMetallicRoughness":{"metallicFactor":0,"roughnessFactor":1,"baseColorTexture":{"index":3}},"alphaMode":"MASK","alphaCutoff":0.05,"doubleSided":true},{"pbrMetallicRoughness":{"metallicFactor":0,"roughnessFactor":1,"baseColorTexture":{"index":4}},"alphaMode":"MASK","alphaCutoff":0.05,"doubleSided":true},{"pbrMetallicRoughness":{"metallicFactor":0,"roughnessFactor":1,"baseColorTexture":{"index":5}},"alphaMode":"MASK","alphaCutoff":0.05,"doubleSided":true}],"textures":[{"sampler":0,"source":0,"name":"steam_engine_base.png"},{"sampler":1,"source":1,"name":"steam_engine_steam_inlet.png"},{"sampler":2,"source":2,"name":"steam_engine_flywheel.png"},{"sampler":3,"source":3,"name":"steam_engine_flywheel_spokes.png"},{"sampler":4,"source":4,"name":"steam_engine_connecting_rod.png"},{"sampler":5,"source":5,"name":"steam_engine_piston.png"}],"samplers":[{"magFilter":9728,"minFilter":9728,"wrapS":33071,"wrapT":33071},{"magFilter":9728,"minFilter":9728,"wrapS":33071,"wrapT":33071},{"magFilter":9728,"minFilter":9728,"wrapS":33071,"wrapT":33071},{"magFilter":9728,"minFilter":9728,"wrapS":33071,"wrapT":33071},{"magFilter":9728,"minFilter":9728,"wrapS":33071,"wrapT":33071},{"magFilter":9728,"minFilter":9728,"wrapS":33071,"wrapT":33071}],"images":[{"mimeType":"image/png","name":"steam_engine_base.png","uri":"steam_engine_base.png"},{"mimeType":"image/png","name":"steam_engine_steam_inlet.png","uri":"steam_engine_steam_inlet.png"},{"mimeType":"image/png","name":"steam_engine_flywheel.png","uri":"steam_engine_flywheel.png"},{"mimeType":"image/png","name":"steam_engine_flywheel_spokes.png","uri":"steam_engine_flywheel_spokes.png"},{"mimeType":"image/png","name":"steam_engine_connecting_rod.png","uri":"steam_engine_connecting_rod.png"},{"mimeType":"image/png","name":"steam_engine_piston.png","uri":"steam_engine_piston.png"}],"meshes":[{"primitives":[{"mode":4,"attributes":{"POSITION":0,"NORMAL":1,"TEXCOORD_0":2},"indices":3,"material":0}]},{"primitives":[{"mode":4,"attributes":{"POSITION":4,"NORMAL":5,"TEXCOORD_0":6},"indices":7,"material":1}]},{"primitives":[{"mode":4,"attributes":{"POSITION":8,"NORMAL":9,"TEXCOORD_0":10},"indices":11,"material":2}]},{"primitives":[{"mode":4,"attributes":{"POSITION":12,"NORMAL":13,"TEXCOORD_0":14},"indices":15,"material":3}]},{"primitives":[{"mode":4,"attributes":{"POSITION":16,"NORMAL":17,"TEXCOORD_0":18},"indices":19,"material":4}]},{"primitives":[{"mode":4,"attributes":{"POSITION":20,"NORMAL":21,"TEXCOORD_0":22},"indices":23,"material":5}]}],"animations":[{"name":"animation","samplers":[{"input":24,"output":25,"interpolation":"LINEAR"},{"input":26,"output":27,"interpolation":"LINEAR"},{"input":28,"output":29,"interpolation":"LINEAR"},{"input":30,"output":31,"interpolation":"LINEAR"},{"input":32,"output":33,"interpolation":"LINEAR"}],"channels":[{"sampler":0,"target":{"node":7,"path":"rotation"}},{"sampler":1,"target":{"node":7,"path":"translation"}},{"sampler":2,"target":{"node":9,"path":"rotation"}},{"sampler":3,"target":{"node":9,"path":"translation"}},{"sampler":4,"target":{"node":6,"path":"rotation"}}]}]}